# xmcd
#
# Track frame offsets: 
#        150
#        13051
#        26616
#        38866
#        53314
#        67146
#        81383
#        94259
#        110839
#        122097
#        133602
#        148834
#
# Disc length: 2148 seconds
#
# Revision: 1
# Processed by: cddbd v1.5.2PL0 Copyright (c) Steve Scherf et al.
# Submitted via: ExactAudioCopyFreeDBPlugin 1.0
#
DISCID=ac08620c
DTITLE=Kate and Anna McGarrigle - Tell My Sister [CD1]
DYEAR=2011
DGENRE=Folk
TTITLE0=Kiss And Say Goodbye
TTITLE1=My Town
TTITLE2=Blues In D
TTITLE3=Heart Like A Wheel
TTITLE4=Foolish You
TTITLE5=(Talk To Me Of) Mendocino
TTITLE6=Complainte Pour Ste-Catherine
TTITLE7=Tell My Sister
TTITLE8=Swimming Song
TTITLE9=Jigsaw Puzzle Of Life
TTITLE10=Go Leave
TTITLE11=Travelling On For Jesus
EXTD=
EXTT0=
EXTT1=
EXTT2=
EXTT3=
EXTT4=
EXTT5=
EXTT6=
EXTT7=
EXTT8=
EXTT9=
EXTT10=
EXTT11=
PLAYORDER=
